<?xml version="1.0" encoding="utf-8"?>
<!-- Generator: Adobe Illustrator 27.0.1, SVG Export Plug-In . SVG Version: 6.00 Build 0)  -->
<svg version="1.1" id="Layer_1" xmlns="http://www.w3.org/2000/svg" xmlns:xlink="http://www.w3.org/1999/xlink" x="0px" y="0px"
	 viewBox="0 0 160 32.16" style="enable-background:new 0 0 160 32.16;" xml:space="preserve">
<style type="text/css">
	.st0{fill:#E5E5E5;}
	.st1{fill:#66E9FF;}
</style>
<g>
	<path class="st0" d="M32.98,20.35V1.13h7.08c2.71,0,5.02,0.93,6.92,2.78c1.9,1.85,2.85,4.13,2.85,6.83c0,2.7-0.95,4.97-2.86,6.83
		c-1.9,1.85-4.21,2.78-6.91,2.78H32.98z M37.97,5.37v10.75h1.13c1.7,0,3.05-0.47,4.04-1.42c0.99-0.95,1.49-2.26,1.49-3.96
		c0-1.67-0.49-2.98-1.48-3.94c-0.99-0.96-2.32-1.44-3.99-1.44H37.97z"/>
	<path class="st0" d="M61.82,0.5c2.88,0,5.35,0.92,7.42,2.75c2.14,1.91,3.21,4.29,3.21,7.13c0,3.11-0.99,5.66-2.98,7.63
		c-1.99,1.98-4.54,2.97-7.65,2.97c-3.11,0-5.66-0.99-7.65-2.97c-1.99-1.98-2.98-4.52-2.98-7.63c0-2.83,1.08-5.2,3.25-7.12
		C56.51,1.42,58.97,0.5,61.82,0.5z M61.82,5.34c-1.42,0-2.67,0.49-3.75,1.46c-1.12,1-1.68,2.21-1.68,3.61c0,1.59,0.5,2.94,1.51,4.03
		c1.04,1.14,2.34,1.7,3.92,1.7c1.58,0,2.88-0.57,3.92-1.7c1-1.1,1.51-2.44,1.51-4.03c0-1.41-0.56-2.61-1.68-3.61
		C64.48,5.83,63.24,5.34,61.82,5.34z"/>
	<path class="st0" d="M78.17,1.13l4.64,11.68l4.67-11.68h5.43l-8.2,19.21h-3.88L72.74,1.13H78.17z"/>
	<path class="st0" d="M99.15,1.13v19.21h-4.99V1.13H99.15z"/>
	<path class="st0" d="M113.36,5.37h-5.95v3.21h5.64v4.23h-5.64v3.31h5.95v4.23h-10.94V1.13h10.94V5.37z"/>
	<path class="st0" d="M128.98,2.21l-1.99,3.87c-1.02-0.85-2.12-1.27-3.31-1.27c-0.53,0-1,0.13-1.42,0.4
		c-0.48,0.3-0.72,0.7-0.72,1.21c0,0.77,0.74,1.38,2.22,1.83l1.27,0.39c1.52,0.46,2.64,1.05,3.37,1.75c0.91,0.89,1.37,2.05,1.37,3.5
		c0,2.26-0.68,4.01-2.04,5.23c-1.3,1.17-3.1,1.75-5.4,1.75c-2.41,0-4.67-0.73-6.76-2.19l2.14-4.03c1.52,1.33,3,1.99,4.44,1.99
		c0.66,0,1.21-0.15,1.66-0.46c0.51-0.36,0.76-0.85,0.76-1.48c0-0.61-0.37-1.11-1.11-1.51c-0.37-0.2-1.01-0.43-1.92-0.68
		c-1.86-0.53-3.12-1.08-3.78-1.66c-0.95-0.81-1.42-2.07-1.42-3.77c0-1.95,0.61-3.51,1.84-4.69c1.23-1.17,2.82-1.76,4.78-1.76
		C125.12,0.62,127.12,1.15,128.98,2.21z"/>
</g>
<g>
	<g>
		<path class="st0" d="M132.88,17.62c0.41,0,0.77,0.14,1.06,0.43c0.29,0.29,0.44,0.64,0.44,1.05c0,0.41-0.15,0.77-0.44,1.06
			c-0.29,0.29-0.64,0.44-1.06,0.44c-0.41,0-0.77-0.15-1.05-0.44c-0.29-0.29-0.43-0.64-0.43-1.06c0-0.41,0.14-0.77,0.43-1.05
			C132.12,17.77,132.47,17.62,132.88,17.62z"/>
		<path class="st0" d="M135.88,20.35v-9.61h2.5l4.58,5.87h0.02v-5.87h2.5v9.61h-2.5l-4.57-5.89l-0.03,0v5.89H135.88z"/>
		<path class="st0" d="M152.57,12.86h-2.97v1.61h2.82v2.12h-2.82v1.66h2.97v2.12h-5.47v-9.61h5.47V12.86z"/>
		<path class="st0" d="M157.93,12.86v7.49h-2.5v-7.49h-2.07v-2.12H160v2.12H157.93z"/>
	</g>
</g>
<path class="st0" d="M0.91,27.73c0,1.41,1.14,2.55,2.55,2.55h20.39c1.41,0,2.55-1.14,2.55-2.55V17.53H0.91V27.73z"/>
<path class="st0" d="M0.91,11.16V9.57c0.87,0,1.59,0.72,1.59,1.59c0,0.55-0.29,1.07-0.76,1.36L0.91,11.16z"/>
<g>
	<polygon class="st0" points="6.85,3.31 4.64,10.33 6.37,9.95 8.58,2.93 	"/>
	<path class="st0" d="M2.02,4.39c-1.37,0.3-2.24,1.67-1.94,3.04l0.83,3.73l2.21-7.02L2.02,4.39z"/>
	<polygon class="st0" points="12.31,2.1 10.1,9.12 11.83,8.74 14.04,1.72 	"/>
	<polygon class="st0" points="17.77,0.89 15.56,7.91 17.29,7.53 19.5,0.51 	"/>
	<path class="st0" d="M23.13,0l-2.11,6.7l2.29-0.51c1.37-0.3,2.24-1.67,1.94-3.04l-0.28-1.24C24.75,0.95,24.02,0.24,23.13,0z"/>
</g>
<g>
	<g>
		<polygon class="st0" points="4.73,11.16 0.91,11.16 4.59,17.53 8.41,17.53 		"/>
		<polygon class="st0" points="0.91,17.53 4.59,17.53 0.91,11.16 		"/>
		<polygon class="st0" points="10.32,11.16 6.5,11.16 10.18,17.53 14,17.53 		"/>
		<polygon class="st0" points="15.92,11.16 12.09,11.16 15.77,17.53 19.59,17.53 		"/>
		<polygon class="st0" points="21.51,11.16 17.68,11.16 21.36,17.53 25.19,17.53 		"/>
		<polygon class="st0" points="26.4,16.76 23.16,11.16 26.4,11.16 		"/>
	</g>
</g>
<g>
	<path class="st1" d="M32.98,30.22l2.83-3.87v0.75l-2.68-3.7h1.11l2.12,2.91l-0.44,0.01l2.11-2.92h1.06l-2.66,3.64v-0.7l2.83,3.88
		h-1.12l-2.26-3.11h0.43l-2.23,3.11H32.98z"/>
	<path class="st1" d="M42.3,30.27c-0.55,0-1.04-0.11-1.46-0.34c-0.42-0.23-0.74-0.54-0.97-0.93s-0.35-0.85-0.35-1.36
		c0-0.51,0.11-0.97,0.34-1.36c0.22-0.4,0.53-0.71,0.92-0.93c0.39-0.22,0.84-0.34,1.33-0.34c0.5,0,0.94,0.11,1.32,0.33
		c0.38,0.22,0.68,0.53,0.9,0.93c0.22,0.4,0.33,0.86,0.33,1.4c0,0.04,0,0.08-0.01,0.14c0,0.05-0.01,0.1-0.01,0.15h-4.39v-0.67h3.91
		l-0.38,0.23c0.01-0.33-0.06-0.63-0.2-0.89c-0.14-0.26-0.34-0.46-0.59-0.61c-0.25-0.15-0.54-0.22-0.87-0.22
		c-0.32,0-0.61,0.07-0.87,0.22c-0.25,0.15-0.45,0.35-0.59,0.61c-0.14,0.26-0.21,0.56-0.21,0.9v0.16c0,0.34,0.08,0.65,0.24,0.92
		c0.16,0.27,0.38,0.48,0.67,0.63c0.29,0.15,0.61,0.22,0.98,0.22c0.31,0,0.58-0.05,0.83-0.16c0.25-0.1,0.47-0.26,0.66-0.47l0.52,0.6
		c-0.23,0.27-0.52,0.48-0.87,0.62C43.12,30.2,42.73,30.27,42.3,30.27z"/>
	<path class="st1" d="M52.42,25.01c0.42,0,0.78,0.08,1.1,0.24c0.32,0.16,0.57,0.41,0.75,0.74c0.18,0.33,0.27,0.75,0.27,1.26v2.97
		H53.6v-2.86c0-0.5-0.12-0.88-0.35-1.13c-0.23-0.25-0.56-0.38-0.98-0.38c-0.31,0-0.58,0.07-0.82,0.19
		c-0.23,0.13-0.41,0.32-0.54,0.57c-0.13,0.25-0.19,0.57-0.19,0.94v2.66h-0.93v-2.86c0-0.5-0.12-0.88-0.35-1.13
		c-0.23-0.25-0.56-0.38-0.99-0.38c-0.31,0-0.57,0.07-0.81,0.19c-0.23,0.13-0.42,0.32-0.55,0.57s-0.19,0.57-0.19,0.94v2.66h-0.93
		v-5.16h0.9v1.37l-0.15-0.35c0.16-0.34,0.41-0.6,0.75-0.79c0.34-0.19,0.73-0.28,1.18-0.28c0.49,0,0.92,0.12,1.28,0.37
		c0.36,0.24,0.59,0.61,0.7,1.11l-0.38-0.16c0.16-0.4,0.43-0.71,0.82-0.95C51.45,25.13,51.9,25.01,52.42,25.01z"/>
	<path class="st1" d="M58.88,32.11v-7.05h0.9v1.39l-0.06,1.2l0.1,1.2v3.26H58.88z M61.61,30.27c-0.43,0-0.82-0.1-1.17-0.3
		c-0.35-0.2-0.64-0.49-0.85-0.88c-0.21-0.39-0.32-0.88-0.32-1.46c0-0.58,0.1-1.07,0.31-1.46c0.2-0.39,0.48-0.68,0.84-0.88
		c0.35-0.19,0.75-0.29,1.19-0.29c0.51,0,0.95,0.11,1.34,0.33c0.39,0.22,0.7,0.53,0.92,0.92c0.23,0.39,0.34,0.85,0.34,1.38
		c0,0.53-0.11,0.99-0.34,1.38c-0.23,0.4-0.54,0.7-0.92,0.93C62.57,30.16,62.12,30.27,61.61,30.27z M61.54,29.46
		c0.33,0,0.63-0.07,0.89-0.22s0.47-0.36,0.62-0.64c0.15-0.28,0.23-0.6,0.23-0.96c0-0.37-0.08-0.69-0.23-0.96s-0.36-0.48-0.62-0.63
		c-0.26-0.15-0.56-0.22-0.89-0.22c-0.32,0-0.62,0.07-0.88,0.22c-0.26,0.15-0.47,0.36-0.62,0.63c-0.15,0.27-0.23,0.59-0.23,0.96
		c0,0.36,0.08,0.68,0.23,0.96c0.15,0.28,0.36,0.49,0.62,0.64C60.92,29.38,61.21,29.46,61.54,29.46z"/>
	<path class="st1" d="M68.28,25.01c0.42,0,0.79,0.08,1.11,0.24c0.32,0.16,0.57,0.41,0.76,0.74c0.18,0.33,0.27,0.75,0.27,1.26v2.97
		h-0.93v-2.86c0-0.5-0.12-0.88-0.37-1.13c-0.24-0.25-0.59-0.38-1.03-0.38c-0.33,0-0.62,0.07-0.87,0.19
		c-0.25,0.13-0.44,0.32-0.57,0.57c-0.13,0.25-0.2,0.57-0.2,0.94v2.66h-0.93v-7.23h0.93v3.46l-0.18-0.37
		c0.17-0.34,0.43-0.6,0.78-0.79S67.81,25.01,68.28,25.01z"/>
	<path class="st1" d="M72.62,24.06c-0.18,0-0.33-0.06-0.45-0.17c-0.12-0.12-0.18-0.26-0.18-0.43c0-0.17,0.06-0.32,0.18-0.44
		c0.12-0.12,0.27-0.18,0.45-0.18c0.18,0,0.33,0.06,0.45,0.17c0.12,0.11,0.18,0.25,0.18,0.42c0,0.17-0.06,0.32-0.18,0.44
		C72.96,24,72.81,24.06,72.62,24.06z M72.15,30.22v-5.16h0.93v5.16H72.15z"/>
	<path class="st1" d="M81.32,25.01c0.42,0,0.78,0.08,1.1,0.24c0.32,0.16,0.57,0.41,0.75,0.74c0.18,0.33,0.27,0.75,0.27,1.26v2.97
		H82.5v-2.86c0-0.5-0.12-0.88-0.35-1.13c-0.23-0.25-0.56-0.38-0.98-0.38c-0.31,0-0.58,0.07-0.82,0.19
		c-0.23,0.13-0.41,0.32-0.54,0.57c-0.13,0.25-0.19,0.57-0.19,0.94v2.66h-0.93v-2.86c0-0.5-0.12-0.88-0.35-1.13
		c-0.23-0.25-0.56-0.38-0.99-0.38c-0.31,0-0.57,0.07-0.81,0.19c-0.23,0.13-0.42,0.32-0.55,0.57s-0.19,0.57-0.19,0.94v2.66h-0.93
		v-5.16h0.9v1.37l-0.15-0.35c0.16-0.34,0.41-0.6,0.75-0.79c0.34-0.19,0.73-0.28,1.18-0.28c0.49,0,0.92,0.12,1.28,0.37
		c0.36,0.24,0.59,0.61,0.7,1.11l-0.38-0.16c0.16-0.4,0.43-0.71,0.82-0.95C80.35,25.13,80.8,25.01,81.32,25.01z"/>
	<path class="st1" d="M90.03,30.27c-0.53,0-1-0.11-1.41-0.34c-0.41-0.23-0.74-0.54-0.97-0.93c-0.23-0.4-0.35-0.85-0.35-1.36
		c0-0.51,0.12-0.97,0.35-1.36c0.23-0.4,0.56-0.71,0.97-0.93c0.41-0.22,0.88-0.34,1.41-0.34c0.47,0,0.88,0.09,1.25,0.28
		c0.37,0.19,0.65,0.46,0.85,0.82l-0.71,0.46c-0.17-0.25-0.37-0.44-0.62-0.56c-0.24-0.12-0.5-0.18-0.78-0.18
		c-0.34,0-0.64,0.07-0.91,0.22c-0.27,0.15-0.48,0.36-0.63,0.63c-0.16,0.27-0.23,0.59-0.23,0.96c0,0.37,0.08,0.69,0.23,0.96
		c0.16,0.27,0.37,0.48,0.63,0.63c0.27,0.15,0.57,0.22,0.91,0.22c0.28,0,0.54-0.06,0.78-0.18s0.45-0.31,0.62-0.56l0.71,0.45
		c-0.2,0.36-0.49,0.63-0.85,0.82C90.91,30.18,90.5,30.27,90.03,30.27z"/>
	<path class="st1" d="M96.03,25.01c0.42,0,0.79,0.08,1.11,0.24c0.32,0.16,0.57,0.41,0.76,0.74c0.18,0.33,0.27,0.75,0.27,1.26v2.97
		h-0.93v-2.86c0-0.5-0.12-0.88-0.37-1.13c-0.24-0.25-0.59-0.38-1.03-0.38c-0.33,0-0.62,0.07-0.87,0.19
		c-0.25,0.13-0.44,0.32-0.57,0.57c-0.13,0.25-0.2,0.57-0.2,0.94v2.66h-0.93v-7.23h0.93v3.46l-0.18-0.37
		c0.17-0.34,0.43-0.6,0.78-0.79S95.56,25.01,96.03,25.01z"/>
	<path class="st1" d="M101.41,30.27c-0.38,0-0.72-0.06-1.01-0.19c-0.29-0.13-0.51-0.31-0.67-0.54c-0.16-0.23-0.23-0.49-0.23-0.78
		c0-0.28,0.07-0.53,0.2-0.76c0.13-0.23,0.35-0.41,0.65-0.54c0.3-0.14,0.71-0.2,1.22-0.2h1.64v0.67h-1.6c-0.47,0-0.78,0.08-0.94,0.23
		c-0.16,0.16-0.24,0.34-0.24,0.56c0,0.25,0.1,0.46,0.3,0.61c0.2,0.15,0.48,0.23,0.84,0.23c0.35,0,0.66-0.08,0.92-0.23
		c0.26-0.16,0.45-0.38,0.57-0.68l0.18,0.64c-0.12,0.31-0.34,0.55-0.65,0.73C102.28,30.19,101.89,30.27,101.41,30.27z M103.11,30.22
		v-1.09l-0.05-0.2v-1.86c0-0.4-0.12-0.7-0.35-0.92c-0.23-0.22-0.58-0.33-1.04-0.33c-0.31,0-0.6,0.05-0.9,0.15
		c-0.29,0.1-0.54,0.24-0.74,0.4l-0.39-0.7c0.27-0.21,0.59-0.38,0.96-0.49c0.37-0.11,0.76-0.17,1.17-0.17c0.71,0,1.25,0.17,1.64,0.52
		c0.38,0.34,0.57,0.87,0.57,1.58v3.12H103.11z M100.11,24.3l1.3-0.97h0.88l1.31,0.97h-0.86l-1.28-0.79h0.78l-1.28,0.79H100.11z
		 M102.82,23.45l1.15-1.1h1.06l-1.44,1.1H102.82z"/>
	<path class="st1" d="M104.99,25.82v-0.77h3.29v0.77H104.99z M107.5,30.27c-0.52,0-0.92-0.14-1.21-0.42
		c-0.29-0.28-0.43-0.68-0.43-1.2v-4.73h0.93v4.69c0,0.28,0.07,0.49,0.21,0.64c0.14,0.15,0.34,0.22,0.6,0.22
		c0.29,0,0.54-0.08,0.73-0.24l0.29,0.67c-0.14,0.12-0.31,0.21-0.51,0.27C107.92,30.25,107.72,30.27,107.5,30.27z"/>
	<path class="st1" d="M112.38,30.22v-7.23h0.93v7.23H112.38z"/>
	<path class="st1" d="M117.27,30.27c-0.44,0-0.83-0.08-1.16-0.24c-0.33-0.16-0.59-0.41-0.78-0.74c-0.18-0.33-0.28-0.76-0.28-1.26
		v-2.97h0.93v2.86c0,0.51,0.12,0.89,0.37,1.14c0.24,0.25,0.59,0.38,1.03,0.38c0.32,0,0.61-0.07,0.85-0.2
		c0.24-0.13,0.43-0.33,0.55-0.58c0.13-0.26,0.19-0.57,0.19-0.93v-2.67h0.93v5.16h-0.89v-1.39l0.15,0.37
		c-0.17,0.34-0.42,0.61-0.76,0.8C118.07,30.18,117.69,30.27,117.27,30.27z M119.27,25.77v-0.71h0.17c0.21,0,0.37-0.06,0.47-0.18
		c0.1-0.12,0.15-0.27,0.15-0.45c0-0.12-0.02-0.24-0.05-0.34s-0.08-0.19-0.14-0.27l0.59-0.22c0.09,0.11,0.16,0.24,0.2,0.39
		c0.05,0.15,0.07,0.31,0.07,0.48c0,0.39-0.11,0.71-0.34,0.95c-0.23,0.24-0.55,0.37-0.95,0.37H119.27z"/>
	<path class="st1" d="M123.78,30.27c-0.52,0-0.98-0.11-1.38-0.34c-0.4-0.23-0.72-0.54-0.95-0.93c-0.23-0.4-0.35-0.85-0.35-1.36
		c0-0.51,0.12-0.97,0.35-1.36c0.23-0.4,0.55-0.71,0.96-0.93c0.41-0.22,0.87-0.34,1.39-0.34c0.18,0,0.32,0,0.44,0.01
		c0.12,0.01,0.24,0.02,0.35,0.03c0.11,0.01,0.24,0.01,0.38,0.01c0.25,0,0.44-0.06,0.56-0.19c0.12-0.13,0.18-0.28,0.18-0.46
		c0-0.12-0.02-0.23-0.06-0.34c-0.04-0.1-0.09-0.19-0.15-0.28l0.58-0.22c0.08,0.12,0.15,0.25,0.2,0.4c0.05,0.15,0.08,0.31,0.08,0.47
		c0,0.25-0.06,0.46-0.17,0.65c-0.12,0.19-0.28,0.33-0.5,0.44c-0.22,0.1-0.48,0.16-0.79,0.16c-0.1,0-0.21,0-0.31-0.01
		c-0.1-0.01-0.21-0.02-0.33-0.04l0.54-0.44c0.5,0.18,0.9,0.49,1.21,0.92s0.46,0.94,0.46,1.52c0,0.51-0.12,0.97-0.35,1.36
		c-0.23,0.4-0.55,0.71-0.95,0.93C124.76,30.16,124.3,30.27,123.78,30.27z M123.78,29.46c0.32,0,0.62-0.07,0.88-0.22
		s0.47-0.36,0.62-0.64c0.15-0.28,0.23-0.6,0.23-0.96c0-0.37-0.07-0.69-0.22-0.96c-0.15-0.27-0.36-0.48-0.62-0.63
		c-0.26-0.15-0.56-0.22-0.89-0.22c-0.33,0-0.63,0.07-0.89,0.22c-0.26,0.15-0.47,0.36-0.62,0.63c-0.16,0.27-0.23,0.59-0.23,0.96
		c0,0.36,0.08,0.68,0.23,0.96c0.16,0.28,0.36,0.49,0.62,0.64C123.16,29.38,123.45,29.46,123.78,29.46z M123.78,32.12
		c-0.14,0-0.25-0.05-0.35-0.14c-0.1-0.09-0.15-0.21-0.15-0.35c0-0.15,0.05-0.27,0.15-0.37c0.1-0.09,0.21-0.14,0.35-0.14
		c0.14,0,0.25,0.05,0.35,0.14c0.1,0.09,0.15,0.22,0.15,0.37c0,0.14-0.05,0.26-0.15,0.35C124.04,32.08,123.92,32.12,123.78,32.12z"/>
	<path class="st1" d="M130.51,25.01c0.42,0,0.79,0.08,1.11,0.24c0.32,0.16,0.57,0.41,0.76,0.74c0.18,0.33,0.27,0.75,0.27,1.26v2.97
		h-0.93v-2.86c0-0.5-0.12-0.88-0.37-1.13c-0.24-0.25-0.59-0.38-1.03-0.38c-0.33,0-0.62,0.07-0.87,0.19
		c-0.25,0.13-0.44,0.32-0.57,0.57c-0.13,0.25-0.2,0.57-0.2,0.94v2.66h-0.93v-5.16h0.9v1.39l-0.15-0.37c0.17-0.34,0.43-0.6,0.78-0.79
		S130.04,25.01,130.51,25.01z"/>
	<path class="st1" d="M136.53,30c-0.5,0-0.95-0.11-1.34-0.32c-0.39-0.21-0.7-0.5-0.93-0.88s-0.35-0.81-0.35-1.3
		c0-0.5,0.12-0.94,0.35-1.31c0.23-0.37,0.54-0.66,0.93-0.87c0.39-0.21,0.84-0.31,1.34-0.31c0.44,0,0.84,0.09,1.21,0.27
		c0.36,0.18,0.65,0.45,0.87,0.82c0.22,0.37,0.33,0.84,0.33,1.4c0,0.56-0.11,1.02-0.33,1.39c-0.22,0.37-0.51,0.65-0.87,0.83
		C137.37,29.91,136.97,30,136.53,30z M136.65,32.16c-0.47,0-0.93-0.07-1.38-0.2c-0.44-0.13-0.81-0.32-1.09-0.57l0.45-0.72
		c0.24,0.21,0.54,0.37,0.89,0.49c0.35,0.12,0.72,0.18,1.1,0.18c0.61,0,1.06-0.14,1.34-0.43c0.29-0.29,0.43-0.72,0.43-1.3v-1.09
		l0.1-1.02l-0.05-1.03v-1.41h0.89v4.46c0,0.91-0.23,1.58-0.68,2.01C138.19,31.95,137.52,32.16,136.65,32.16z M136.64,29.18
		c0.34,0,0.65-0.07,0.92-0.21c0.27-0.14,0.48-0.34,0.63-0.59c0.15-0.25,0.23-0.55,0.23-0.88s-0.08-0.62-0.23-0.88
		c-0.15-0.25-0.36-0.45-0.63-0.59c-0.27-0.14-0.57-0.21-0.92-0.21c-0.34,0-0.65,0.07-0.92,0.21c-0.27,0.14-0.48,0.34-0.63,0.59
		c-0.15,0.25-0.23,0.55-0.23,0.88s0.08,0.62,0.23,0.88c0.15,0.25,0.36,0.45,0.63,0.59C135.99,29.11,136.29,29.18,136.64,29.18z"/>
	<path class="st1" d="M145.98,30.27c-0.53,0-1-0.11-1.41-0.34c-0.41-0.23-0.74-0.54-0.97-0.93c-0.23-0.4-0.35-0.85-0.35-1.36
		c0-0.51,0.12-0.97,0.35-1.36c0.23-0.4,0.56-0.71,0.97-0.93c0.41-0.22,0.88-0.34,1.41-0.34c0.47,0,0.88,0.09,1.25,0.28
		c0.37,0.19,0.65,0.46,0.85,0.82l-0.71,0.46c-0.17-0.25-0.37-0.44-0.62-0.56c-0.24-0.12-0.5-0.18-0.78-0.18
		c-0.34,0-0.64,0.07-0.91,0.22c-0.27,0.15-0.48,0.36-0.63,0.63c-0.16,0.27-0.23,0.59-0.23,0.96c0,0.37,0.08,0.69,0.23,0.96
		c0.16,0.27,0.37,0.48,0.63,0.63c0.27,0.15,0.57,0.22,0.91,0.22c0.28,0,0.54-0.06,0.78-0.18c0.24-0.12,0.45-0.31,0.62-0.56
		l0.71,0.45c-0.2,0.36-0.49,0.63-0.85,0.82C146.86,30.18,146.44,30.27,145.98,30.27z"/>
	<path class="st1" d="M150.8,30.27c-0.38,0-0.72-0.06-1.01-0.19c-0.29-0.13-0.51-0.31-0.67-0.54c-0.16-0.23-0.23-0.49-0.23-0.78
		c0-0.28,0.07-0.53,0.2-0.76c0.13-0.23,0.35-0.41,0.65-0.54c0.3-0.14,0.71-0.2,1.22-0.2h1.64v0.67H151c-0.47,0-0.78,0.08-0.94,0.23
		c-0.16,0.16-0.24,0.34-0.24,0.56c0,0.25,0.1,0.46,0.3,0.61c0.2,0.15,0.48,0.23,0.84,0.23c0.35,0,0.66-0.08,0.92-0.23
		c0.26-0.16,0.45-0.38,0.57-0.68l0.18,0.64c-0.12,0.31-0.34,0.55-0.65,0.73C151.66,30.19,151.27,30.27,150.8,30.27z M152.49,30.22
		v-1.09l-0.05-0.2v-1.86c0-0.4-0.12-0.7-0.35-0.92c-0.23-0.22-0.58-0.33-1.04-0.33c-0.31,0-0.6,0.05-0.9,0.15
		c-0.29,0.1-0.54,0.24-0.74,0.4l-0.39-0.7c0.27-0.21,0.59-0.38,0.96-0.49c0.37-0.11,0.76-0.17,1.17-0.17c0.71,0,1.25,0.17,1.64,0.52
		c0.38,0.34,0.57,0.87,0.57,1.58v3.12H152.49z"/>
	<path class="st1" d="M157.32,30.27c-0.52,0-0.98-0.11-1.38-0.34c-0.4-0.23-0.72-0.54-0.95-0.94c-0.23-0.4-0.35-0.85-0.35-1.36
		c0-0.51,0.12-0.97,0.35-1.36c0.23-0.4,0.55-0.71,0.95-0.93c0.4-0.22,0.86-0.34,1.38-0.34c0.51,0,0.97,0.11,1.38,0.34
		c0.41,0.22,0.72,0.53,0.95,0.93c0.23,0.39,0.35,0.85,0.35,1.37c0,0.51-0.12,0.97-0.35,1.36c-0.23,0.4-0.55,0.71-0.95,0.93
		C158.29,30.16,157.83,30.27,157.32,30.27z M157.32,29.46c0.33,0,0.63-0.07,0.89-0.22s0.47-0.36,0.62-0.64
		c0.15-0.28,0.22-0.6,0.22-0.96c0-0.37-0.07-0.69-0.22-0.96s-0.36-0.48-0.62-0.63c-0.26-0.15-0.56-0.22-0.89-0.22
		c-0.33,0-0.63,0.07-0.89,0.22c-0.26,0.15-0.47,0.36-0.62,0.63c-0.16,0.27-0.23,0.59-0.23,0.96c0,0.36,0.08,0.68,0.23,0.96
		c0.16,0.28,0.36,0.49,0.62,0.64S156.99,29.46,157.32,29.46z"/>
</g>
</svg>
